<?xml version="1.0" encoding="utf-8"?>
<!-- Generator: Adobe Illustrator 23.0.4, SVG Export Plug-In . SVG Version: 6.00 Build 0)  -->
<svg version="1.1" id="Layer_1" xmlns="http://www.w3.org/2000/svg" xmlns:xlink="http://www.w3.org/1999/xlink" x="0px" y="0px"
	 viewBox="0 0 136 156.5" style="enable-background:new 0 0 136 156.5;" xml:space="preserve">
<style type="text/css">
	.st0{fill:#0F9D58;}
	.st1{fill:#F4B400;}
	.st2{fill:#DB4437;}
	.st3{fill:#4285F4;}
	.st4{fill:#111111;}
</style>
<g>
	<rect x="35.5" y="64.4" transform="matrix(0.9925 0.122 -0.122 0.9925 9.1609 -7.5399)" class="st0" width="61.4" height="13.3"/>
	<rect x="37.4" y="51.6" transform="matrix(0.9925 0.122 -0.122 0.9925 7.5881 -7.8714)" class="st1" width="61.4" height="12.8"/>
	<rect x="37.1" y="36.6" transform="matrix(0.9925 0.122 -0.122 0.9925 5.9183 -7.9369)" class="st2" width="61.4" height="15.6"/>
	<g>
		<g>
			<g>
				<path class="st3" d="M68.1,17.8c-21.8,0-39.5,17.7-39.5,39.5c0,21.8,17.7,39.5,39.5,39.5c21.8,0,39.5-17.7,39.5-39.5
					C107.6,35.5,89.9,17.8,68.1,17.8z M86.2,74.8c-0.7,1.2-2.2,1.5-3.4,0.8c-9.3-5.7-21-7-34.7-3.8c-1.3,0.3-2.6-0.5-3-1.9
					c-0.3-1.3,0.5-2.6,1.9-3c15.1-3.4,28-2,38.4,4.4C86.5,72.1,86.9,73.6,86.2,74.8z M91,64c-0.9,1.5-2.8,1.9-4.2,1
					c-10.6-6.5-26.8-8.4-39.4-4.6c-1.6,0.5-3.4-0.4-3.8-2.1c-0.5-1.6,0.4-3.3,2.1-3.8C60,50.2,77.8,52.3,90,59.8
					C91.5,60.7,91.9,62.6,91,64z M91.4,52.8c-12.7-7.6-33.8-8.3-45.9-4.6c-2,0.6-4-0.5-4.6-2.5c-0.6-2,0.5-4,2.5-4.6
					c14-4.2,37.2-3.4,51.9,5.3c1.8,1,2.3,3.3,1.3,5.1C95.5,53.3,93.2,53.9,91.4,52.8z"/>
			</g>
		</g>
	</g>
</g>
<g>
	<path class="st4" d="M30.1,126c0,1.9-0.7,3.4-2.1,4.5c-1.4,1.1-3.1,1.7-5.1,1.7c-1.8,0-3.4-0.5-4.7-1.6c-1.4-1-2.3-2.5-2.8-4.3
		l2.6-1.1c0.2,0.6,0.4,1.2,0.8,1.7c0.3,0.5,0.7,1,1.1,1.3c0.4,0.4,0.9,0.7,1.4,0.9c0.5,0.2,1.1,0.3,1.6,0.3c1.3,0,2.3-0.3,3.1-1
		c0.8-0.6,1.2-1.5,1.2-2.6c0-0.9-0.3-1.7-1-2.3c-0.6-0.6-1.8-1.2-3.5-1.8c-1.7-0.6-2.8-1-3.2-1.3c-2.3-1.2-3.4-2.9-3.4-5.1
		c0-1.6,0.6-2.9,1.9-4c1.3-1.1,2.9-1.7,4.7-1.7c1.6,0,3.1,0.4,4.3,1.3c1.2,0.8,2,1.9,2.4,3.1l-2.6,1.1c-0.2-0.8-0.7-1.5-1.4-2
		c-0.7-0.5-1.6-0.8-2.6-0.8c-1.1,0-2,0.3-2.7,0.9c-0.7,0.6-1.1,1.3-1.1,2.2c0,0.7,0.3,1.4,0.9,1.9c0.6,0.5,2,1.2,4.2,1.9
		c2.2,0.7,3.7,1.6,4.7,2.7C29.7,123.2,30.1,124.5,30.1,126z"/>
	<path class="st4" d="M40.6,132.2c-1.1,0-2.1-0.2-3-0.7c-0.9-0.5-1.6-1.1-2.1-1.8h-0.1l0.1,2v6.5h-2.8v-21.2h2.6v2h0.1
		c0.5-0.8,1.2-1.4,2.1-1.8c0.9-0.5,1.9-0.7,3-0.7c1.9,0,3.6,0.8,4.9,2.3c1.4,1.5,2.1,3.4,2.1,5.5c0,2.2-0.7,4-2.1,5.6
		C44.2,131.5,42.6,132.2,40.6,132.2z M40.2,129.7c1.3,0,2.4-0.5,3.3-1.5c0.9-1,1.4-2.3,1.4-3.8c0-1.5-0.5-2.8-1.4-3.8
		c-0.9-1-2-1.5-3.3-1.5c-1.3,0-2.5,0.5-3.4,1.5c-0.9,1-1.3,2.3-1.3,3.8c0,1.6,0.4,2.8,1.3,3.8C37.7,129.2,38.8,129.7,40.2,129.7z"/>
	<path class="st4" d="M49.3,124.4c0-2.3,0.7-4.1,2.1-5.6c1.4-1.5,3.2-2.2,5.4-2.2c2.2,0,4,0.7,5.4,2.2c1.4,1.5,2.2,3.4,2.2,5.6
		c0,2.3-0.7,4.2-2.2,5.6c-1.4,1.5-3.2,2.2-5.4,2.2c-2.2,0-4-0.7-5.4-2.2C50,128.5,49.3,126.7,49.3,124.4z M52.1,124.4
		c0,1.6,0.5,2.9,1.4,3.8c0.9,1,2.1,1.5,3.4,1.5c1.4,0,2.5-0.5,3.4-1.5c0.9-1,1.4-2.3,1.4-3.8c0-1.6-0.5-2.8-1.4-3.8
		c-0.9-1-2.1-1.5-3.4-1.5s-2.5,0.5-3.4,1.5C52.5,121.6,52.1,122.8,52.1,124.4z"/>
	<path class="st4" d="M66.1,124.4c0-2.3,0.7-4.1,2.1-5.6c1.4-1.5,3.2-2.2,5.4-2.2s4,0.7,5.4,2.2c1.4,1.5,2.2,3.4,2.2,5.6
		c0,2.3-0.7,4.2-2.2,5.6c-1.4,1.5-3.2,2.2-5.4,2.2s-4-0.7-5.4-2.2C66.8,128.5,66.1,126.7,66.1,124.4z M68.9,124.4
		c0,1.6,0.5,2.9,1.4,3.8c0.9,1,2.1,1.5,3.4,1.5s2.5-0.5,3.4-1.5c0.9-1,1.4-2.3,1.4-3.8c0-1.6-0.5-2.8-1.4-3.8
		c-0.9-1-2.1-1.5-3.4-1.5s-2.5,0.5-3.4,1.5C69.3,121.6,68.9,122.8,68.9,124.4z"/>
	<path class="st4" d="M90.3,138.7c-0.8,0-1.6-0.1-2.3-0.3s-1.4-0.5-2-0.9s-1.1-0.8-1.5-1.3c-0.4-0.5-0.7-1.1-1-1.7l2.6-1.1
		c0.3,0.9,0.8,1.5,1.6,2.1c0.7,0.5,1.6,0.8,2.6,0.8c1.5,0,2.7-0.4,3.5-1.4c0.8-0.9,1.3-2.1,1.3-3.7v-1.4h-0.1
		c-0.5,0.8-1.2,1.4-2.1,1.8c-0.9,0.4-1.9,0.7-2.9,0.7c-1.9,0-3.6-0.8-5-2.2c-1.4-1.5-2-3.4-2-5.6c0-2.2,0.7-4,2-5.5
		c1.4-1.5,3-2.3,5-2.3c1,0,2,0.2,2.9,0.7c0.9,0.4,1.6,1.1,2.1,1.8H95v-2h2.6v14.1c0,2.4-0.7,4.2-2,5.5
		C94.3,138,92.5,138.7,90.3,138.7z M90.3,129.7c1.4,0,2.5-0.5,3.3-1.5c0.9-1,1.3-2.3,1.3-3.8c0-1.5-0.5-2.8-1.3-3.8
		c-0.9-1-2-1.5-3.3-1.5c-1.3,0-2.4,0.5-3.3,1.5c-0.9,1-1.4,2.3-1.4,3.8c0,1.6,0.5,2.8,1.4,3.8C87.9,129.2,89,129.7,90.3,129.7z"/>
	<path class="st4" d="M103.8,110.3v21.5H101v-21.5H103.8z"/>
	<path class="st4" d="M113.6,132.2c-2.2,0-3.9-0.7-5.3-2.2c-1.4-1.5-2.1-3.3-2.1-5.6c0-2.2,0.7-4.1,2-5.6s3.1-2.2,5.2-2.2
		c2.2,0,3.9,0.7,5.2,2.1s1.9,3.4,1.9,5.9l0,0.3H109c0,1.4,0.5,2.6,1.4,3.5c0.9,0.9,2,1.3,3.3,1.3c1.8,0,3.1-0.9,4.1-2.6l2.5,1.2
		c-0.7,1.2-1.6,2.2-2.7,2.9C116.4,131.9,115.1,132.2,113.6,132.2z M109.2,122.6h8.4c-0.1-1-0.5-1.9-1.2-2.5s-1.8-1-3-1
		c-1,0-1.9,0.3-2.7,1C109.9,120.7,109.4,121.6,109.2,122.6z"/>
</g>
<g>
	<path d="M102.4,141.8c-0.3,0-0.5-0.1-0.7-0.2c-0.2-0.1-0.4-0.2-0.5-0.4h0v0.5h-0.6v-5h0.6v1.6l0,0.5h0c0.1-0.2,0.3-0.3,0.5-0.4
		s0.4-0.2,0.7-0.2c0.5,0,0.8,0.2,1.1,0.5c0.3,0.4,0.5,0.8,0.5,1.3c0,0.5-0.2,0.9-0.5,1.3C103.2,141.7,102.9,141.8,102.4,141.8z
		 M102.3,141.2c0.3,0,0.6-0.1,0.8-0.4c0.2-0.2,0.3-0.5,0.3-0.9c0-0.4-0.1-0.7-0.3-0.9s-0.5-0.4-0.8-0.4c-0.3,0-0.6,0.1-0.8,0.4
		c-0.2,0.2-0.3,0.5-0.3,0.9c0,0.4,0.1,0.7,0.3,0.9C101.7,141.1,102,141.2,102.3,141.2z"/>
	<path d="M107.6,138.3l-2.1,4.9h-0.7l0.8-1.7l-1.4-3.2h0.7l1,2.5h0l1-2.5H107.6z"/>
	<path d="M114.3,139.4c0,0.7-0.2,1.3-0.6,1.7c-0.5,0.5-1.1,0.7-1.8,0.7c-0.7,0-1.3-0.3-1.8-0.8s-0.8-1.1-0.8-1.9s0.3-1.4,0.8-1.9
		c0.5-0.5,1.1-0.8,1.8-0.8c0.4,0,0.7,0.1,1,0.2c0.3,0.1,0.6,0.3,0.8,0.6l-0.5,0.5c-0.2-0.2-0.4-0.3-0.6-0.4
		c-0.2-0.1-0.5-0.2-0.8-0.2c-0.5,0-1,0.2-1.4,0.6c-0.4,0.4-0.6,0.9-0.6,1.4c0,0.6,0.2,1.1,0.6,1.4c0.4,0.4,0.8,0.6,1.4,0.6
		c0.5,0,0.9-0.1,1.2-0.4c0.3-0.3,0.5-0.7,0.6-1.2h-1.8V139h2.4C114.3,139.2,114.3,139.3,114.3,139.4z"/>
	<path d="M115.3,141.7h-0.7l1.9-5h0.7l1.9,5h-0.7l-0.5-1.4h-2.1L115.3,141.7z M116.8,137.5l-0.8,2.3h1.7L116.8,137.5L116.8,137.5z"
		/>
	<path d="M122.8,140.4c0,0.4-0.2,0.8-0.5,1.1c-0.3,0.3-0.7,0.4-1.2,0.4c-0.4,0-0.8-0.1-1.1-0.4c-0.3-0.2-0.5-0.6-0.7-1l0.6-0.3
		c0,0.1,0.1,0.3,0.2,0.4c0.1,0.1,0.2,0.2,0.3,0.3c0.1,0.1,0.2,0.2,0.3,0.2c0.1,0,0.2,0.1,0.4,0.1c0.3,0,0.5-0.1,0.7-0.2
		c0.2-0.2,0.3-0.4,0.3-0.6c0-0.2-0.1-0.4-0.2-0.5c-0.1-0.1-0.4-0.3-0.8-0.4c-0.4-0.1-0.7-0.2-0.7-0.3c-0.5-0.3-0.8-0.7-0.8-1.2
		c0-0.4,0.1-0.7,0.4-0.9c0.3-0.3,0.7-0.4,1.1-0.4c0.4,0,0.7,0.1,1,0.3c0.3,0.2,0.5,0.4,0.6,0.7l-0.6,0.3c-0.1-0.2-0.2-0.3-0.3-0.5
		c-0.2-0.1-0.4-0.2-0.6-0.2c-0.3,0-0.5,0.1-0.6,0.2c-0.2,0.1-0.3,0.3-0.3,0.5c0,0.2,0.1,0.3,0.2,0.4c0.1,0.1,0.5,0.3,1,0.4
		c0.5,0.2,0.9,0.4,1.1,0.6C122.7,139.7,122.8,140,122.8,140.4z"/>
	<path d="M126.4,136.7h0.8v0l-1.9,2.1l2,2.8v0h-0.8l-1.6-2.3l-0.8,0.9v1.4h-0.6v-5h0.6v2.6h0L126.4,136.7z"/>
</g>
</svg>
